<svg
        xmlns="http://www.w3.org/2000/svg"
        viewBox="0 0 257 216"
        fill="none"
        className="w-full h-full drop-shadow-md"
      >
        <g xmlns="http://www.w3.org/2000/svg" clipPath="url(#clip0_20_1440)">
          <path
            d="M230.348 165.709C223.421 197.258 188.674 206.311 161.309 208.52C133.697 210.748 106.066 208.776 78.4168 202.614C55.1853 197.438 30.8611 188.375 17.1123 167.671C9.14041 154.722 6.82201 139.554 9.03589 124.651C9.29244 122.888 8.99789 120.878 8.15224 119.106C2.71731 107.777 -0.294703 97.0175 0.0188502 84.3523C0.170876 78.4084 2.6413 72.7773 9.15942 72.0284C13.7677 71.4975 20.4949 74.5501 24.7041 76.5788C24.8846 76.6641 24.9606 76.6072 24.9511 76.4081C24.5616 69.8101 29.835 66.6817 35.7925 68.2744C43.1277 70.2462 50.615 75.5265 57.3422 79.2426C60.0691 80.7499 68.0125 85.0254 70.9105 84.3618C86.3696 80.8352 104.784 82.5132 120.252 87.1204C120.48 87.1868 120.537 87.1204 120.433 86.9119C104.974 57.126 113.696 18.0782 146.619 4.65461C172.806 -6.01978 203.23 1.88648 218.585 26.3067C224.875 36.3175 228.58 47.1721 229.702 58.8703C229.73 59.1642 230.025 59.3538 230.31 59.2684C236.353 57.3914 243.973 56.8131 249.304 60.3302C254.776 63.9515 253.722 69.5541 250.624 74.2751C246.263 80.9206 240.096 84.485 232.115 84.978C231.944 84.9875 231.859 85.0728 231.859 85.2434C231.44 101.483 218.442 109.844 203.23 106.848C203.012 106.801 202.907 106.896 202.907 107.114C202.955 110.251 207.069 114.394 209.33 116.357C223.63 128.747 233.369 146.351 230.357 165.728M128.101 91.2063C131.806 96.3444 136.424 100.383 141.954 103.312L149.375 107.275C149.47 107.322 149.508 107.436 149.479 107.531C149.441 107.626 149.337 107.692 149.232 107.663C145.08 106.877 141.099 105.493 137.317 103.502L135.816 102.686C135.636 102.592 135.541 102.639 135.522 102.848C134.894 111.512 123.378 115.437 116.319 117.447C116.129 117.352 115.673 117.428 114.97 117.684C114.951 117.684 114.922 117.703 114.875 117.731C114.808 117.778 114.732 117.769 114.665 117.712C114.542 117.617 114.551 117.532 114.684 117.456L120.975 114.062C123.977 112.422 127.93 109.74 129.849 107.521C131.274 105.853 133.279 102.194 131.246 100.165C129.678 98.6101 128.158 97.1407 126.704 95.7472C125.526 93.8796 124.519 92.7989 123.673 92.4956C110.551 87.9073 97.04 85.9639 83.1201 86.6464C74.7396 87.0541 63.3852 89.0733 56.9431 95.3016L55.8029 96.6098C55.6509 96.7805 55.3753 96.6193 55.4513 96.4013C56.9906 92.3439 60.7437 89.2724 64.4589 87.2626C64.5919 87.1963 64.6014 87.0067 64.4779 86.9214C64.2308 86.7602 63.8983 86.6464 63.4802 86.5706C56.7341 83.2242 50.1209 79.6597 43.6408 75.8583C40.6288 74.0855 34.9373 71.0804 31.5452 71.6966C28.5712 72.237 27.9821 75.8678 29.2459 78.1809C29.6069 78.8539 30.3575 79.5081 31.4882 80.1432C36.7236 83.082 43.7168 87.0067 46.6908 92.3154L47.565 95.9273C47.5935 96.041 47.527 96.1643 47.413 96.2022C47.2989 96.2401 47.1754 96.1832 47.1279 96.0695C45.4271 91.9931 41.75 89.2345 37.9018 87.4712C31.2222 83.4801 24.381 80.1053 17.3498 77.3372C14.8699 76.3607 12.9886 75.7919 11.7154 75.6308C4.49412 74.7302 3.41093 81.9254 3.73399 87.3954C4.00953 95.6144 5.71032 103.492 8.82686 111.01C11.3733 119.077 17.7679 128.614 23.4689 133.79C26.7089 136.738 26.5189 136.985 22.8798 134.539C19.3262 132.15 16.0481 128.747 13.0361 124.329C12.9506 124.215 12.77 124.263 12.77 124.405C12.39 131.411 12.0764 137.781 13.1216 145.232C13.8627 149.859 15.1549 154.305 16.9983 158.571C28.9893 185.768 60.5347 194.955 86.9967 200.15C108.157 204.311 129.526 205.942 151.133 205.041C173.186 204.122 204.266 199.979 218.86 181.019C233.778 161.633 226.072 138.521 210.052 122.765C205.244 118.034 198.897 113.342 198.802 105.881C198.802 105.701 198.717 105.587 198.536 105.549L197.767 105.35C186.051 101.16 176.93 91.8414 172.093 80.3233C170.259 78.4084 170.469 76.6736 172.72 75.0999C173.367 74.6449 173.908 74.2562 174.716 74.0381C182.764 71.8483 188.379 66.4732 193.757 62.6907C199.41 58.7091 205.596 56.4719 212.323 55.9694C216.817 55.8083 221.103 56.415 225.179 57.7801C225.388 57.8559 225.606 57.6568 225.54 57.4388L225.302 56.6615C225.245 56.4813 225.122 56.3865 224.932 56.3771C217.397 56.1875 211.611 50.727 212.447 43.1715C212.836 39.6166 214.841 36.8484 218.442 34.8671C218.594 34.7818 218.623 34.668 218.537 34.5258L218.328 34.1751L218.214 33.8622C194.517 -14.0303 120.138 -1.82017 117.088 53.2582C116.347 66.6628 119.929 80.3802 128.091 91.1968M222.88 44.4608L219.763 37.2087C219.763 37.2087 219.715 37.1613 219.677 37.1707C217.739 38.005 216.855 40.3086 217.72 42.3183L217.758 42.4226C218.623 44.4324 220.903 45.3898 222.851 44.5556C222.851 44.5556 222.899 44.4987 222.88 44.4703M204.902 80.1622C206.309 79.5555 207.724 78.9677 209.064 78.1809C218.49 72.6351 228.21 66.7576 239.64 67.3832C241.398 67.478 242.89 68.0942 244.116 69.2318C245.275 70.3031 244.638 72.6446 242.576 71.6492C240.733 70.7581 238.624 70.4547 236.267 70.7391C228.286 71.6966 222.518 74.332 215.801 78.0576C215.649 78.1429 215.658 78.2093 215.829 78.2567C221.777 80.1148 229.673 81.9823 235.441 80.6836C241.379 79.3469 247.023 74.7965 248.923 69.0327C249.76 66.4921 249.152 64.672 247.109 63.5628C243.261 61.0507 237.531 61.5341 233.502 62.3968C224.428 64.3307 217.53 68.9759 209.891 73.8675C205.976 76.3797 201.748 77.8112 197.206 78.1619C202.964 75.3085 207.23 72.8532 210.014 70.815C215.896 66.5016 219.915 63.6671 225.388 61.2971C225.521 61.2403 225.502 61.0507 225.359 61.0222C212.903 58.273 203.981 59.2779 193.719 66.9946C189.956 69.8291 187.457 71.6682 186.213 72.5403C186.08 72.6351 185.928 72.692 185.757 72.711C185.624 72.7299 185.491 72.7773 185.358 72.8626C183.837 73.9054 182.232 74.7871 180.54 75.5075C178.716 76.2849 176.217 76.7304 174.098 77.5078C173.595 77.6879 173.5 78.361 173.937 78.6738C182.593 84.9875 195.486 84.2954 204.893 80.1622M184.179 86.5422C181.756 85.9354 179.4 85.0728 177.12 83.9541C176.673 83.7266 176.607 83.8119 176.92 84.2006C177.519 84.9401 177.509 85.5183 178.041 86.2388C180.797 89.9265 183.638 92.9885 186.555 95.4343C196.275 103.597 218.518 109.332 225.825 94.2304C227.279 91.32 228.001 88.1727 228.001 84.7694C228.001 84.5514 227.896 84.4281 227.678 84.3807C222.547 83.319 217.473 82.0202 212.466 80.4655C212.304 80.4181 212.133 80.4371 211.981 80.5224C203.99 85.0159 193.424 89.0923 184.179 86.5422Z"
            fill="#002441"
          />
          <path
            d="M218.186 33.8336L217.72 33.8052C217.568 33.8052 217.426 33.7104 217.359 33.5682C215.364 29.5961 213.407 26.5815 211.478 24.5149C203.411 15.8692 189.557 7.58375 177.452 6.07644C149.736 2.62575 123.54 24.3537 121.602 52.3385C120.68 65.6483 123.863 78.3893 131.132 89.4903C131.892 90.6563 133.241 91.4336 133.935 92.7134C134.144 93.0926 133.773 93.5287 133.365 93.377C131.759 92.7893 130.267 91.9835 128.88 90.9596C128.747 90.8554 128.604 90.8554 128.452 90.9502L128.082 91.1777C119.92 80.3611 116.338 66.6437 117.079 53.239C120.129 -1.83929 194.517 -14.0494 218.176 33.8147L218.186 33.8336Z"
            fill="#F8EFA0"
          />
          <path
            d="M218.186 33.8338L218.3 34.1466C218.205 34.7817 217.739 35.1325 216.894 35.1894C216.723 35.2083 216.58 35.2937 216.495 35.4359C215.943 36.3744 215.136 36.3364 214.509 36.9811C213.435 38.0902 212.865 39.7587 212.38 40.7825C210.252 45.2476 212.57 51.0114 216.01 54.0449C216.067 54.0923 216.143 54.1208 216.219 54.1113C216.666 54.0639 217.055 54.2061 217.397 54.5379C217.502 54.6422 217.54 54.7654 217.511 54.9076C217.35 55.6755 216.894 55.9694 216.114 55.8082C214.803 55.5238 213.54 55.5712 212.295 55.9504C205.568 56.4528 199.382 58.6901 193.729 62.6717C188.36 66.4542 182.745 71.8293 174.687 74.0191C173.88 74.2372 173.338 74.6259 172.692 75.0809C170.431 76.6451 170.222 78.3894 172.065 80.3043C171.827 81.7927 171.637 83.2241 171.504 84.5987C169.994 100.563 152.919 101.653 141.669 95.9841C141.641 95.9652 140.919 95.6523 139.493 95.0172C138.524 94.5906 137.384 93.3961 136.386 93.2349C136.101 93.1875 136.035 93.2729 136.215 93.5099C136.709 94.164 137.393 94.8465 138.268 95.548C152.596 107.019 170.336 104.469 186.726 100.534C186.887 100.497 187.049 100.506 187.201 100.563L188.769 101.17C189.196 101.331 189.158 101.947 188.712 102.051C174.108 105.635 159.675 107.038 144.795 104.251C143.807 104.061 142.98 103.502 141.945 103.303C136.405 100.373 131.788 96.3349 128.091 91.1968L128.462 90.9692C128.614 90.8744 128.747 90.8744 128.89 90.9787C130.277 92.0025 131.769 92.8083 133.374 93.3961C133.783 93.5478 134.153 93.1117 133.944 92.7325C133.251 91.4527 131.892 90.6754 131.141 89.5093C123.873 78.4083 120.69 65.6673 121.611 52.3575C123.55 24.3728 149.746 2.64481 177.462 6.09551C189.567 7.60281 203.42 15.8883 211.487 24.534C213.407 26.5911 215.364 29.6152 217.369 33.5873C217.445 33.72 217.578 33.8148 217.73 33.8243L218.195 33.8527M164.511 11.8119C161.993 12.3428 158.155 14.3904 156.834 16.7604C156.558 17.2629 156.701 17.4904 157.261 17.443C160.634 17.187 163.837 16.2959 166.849 14.7602C167.02 14.6748 167.143 14.5232 167.191 14.343C167.704 12.4755 166.288 11.4327 164.511 11.8024M171.267 16.5424C167.932 17.5472 162.041 21.2729 161.024 24.9605C160.939 25.2544 161.214 25.5199 161.509 25.4535C165.651 24.4486 169.499 22.8655 173.053 20.7325C175.97 18.9787 174.288 15.6418 171.267 16.5424ZM171.875 57.6852C171.875 50.5374 166.069 44.7451 158.905 44.7451C151.741 44.7451 145.935 50.5374 145.935 57.6852C145.935 64.8331 151.741 70.6253 158.905 70.6253C166.069 70.6253 171.875 64.8331 171.875 57.6852Z"
            fill="#F3D532"
          />
          <path
            d="M156.824 16.7414C158.145 14.3714 161.984 12.3142 164.502 11.7929C166.278 11.4231 167.694 12.4564 167.181 14.3335C167.133 14.5136 167.01 14.6653 166.839 14.7506C163.827 16.2769 160.625 17.168 157.252 17.4334C156.691 17.4808 156.549 17.2533 156.824 16.7509V16.7414Z"
            fill="#F8EFA0"
          />
          <path
            d="M161.015 24.9511C162.031 21.2634 167.922 17.5378 171.257 16.5329C174.279 15.6323 175.961 18.9597 173.044 20.723C169.49 22.856 165.642 24.4391 161.499 25.444C161.205 25.5104 160.939 25.2449 161.015 24.9511Z"
            fill="#F8EFA0"
          />
          <path
            d="M218.3 34.1465L218.509 34.4972C218.594 34.6489 218.566 34.7627 218.414 34.8385C214.803 36.8198 212.808 39.5879 212.418 43.1429C211.582 50.6984 217.368 56.1588 224.903 56.3484C225.093 56.3484 225.217 56.4527 225.274 56.6328L225.511 57.4102C225.578 57.6282 225.359 57.8273 225.15 57.7515C221.074 56.3864 216.789 55.7796 212.295 55.9408C213.539 55.5616 214.813 55.5142 216.114 55.7986C216.893 55.9692 217.359 55.6659 217.511 54.898C217.539 54.7463 217.511 54.6326 217.397 54.5283C217.055 54.1965 216.656 54.0543 216.219 54.1017C216.143 54.1017 216.067 54.0827 216.01 54.0353C212.57 51.0018 210.252 45.2475 212.38 40.7729C212.865 39.7491 213.435 38.0806 214.508 36.9715C215.136 36.3174 215.943 36.3648 216.494 35.4263C216.58 35.2841 216.732 35.1893 216.893 35.1798C217.73 35.1229 218.205 34.7721 218.3 34.137V34.1465Z"
            fill="#ECC52E"
          />
          <path
            d="M222.88 44.4608C222.88 44.4608 222.88 44.5272 222.851 44.5461C220.903 45.3803 218.623 44.4229 217.758 42.4131L217.72 42.3089C216.856 40.2991 217.739 37.9955 219.678 37.1613C219.678 37.1613 219.754 37.1613 219.763 37.1992L222.88 44.4513V44.4608Z"
            fill="white"
          />
          <path
            d="M171.865 57.6758C171.865 64.8237 166.06 70.6159 158.895 70.6159C151.731 70.6159 145.926 64.8237 145.926 57.6758C145.926 50.5279 151.731 44.7357 158.895 44.7357C166.06 44.7357 171.865 50.5279 171.865 57.6758ZM166.924 56.7088C168.882 55.2584 169.243 52.4429 167.732 50.4142C166.221 48.3855 163.418 47.921 161.461 49.3714C159.504 50.8218 159.143 53.6374 160.653 55.6661C162.164 57.6948 164.967 58.1593 166.924 56.7088Z"
            fill="#002441"
          />
          <path
            d="M166.924 56.7087C164.967 58.1592 162.154 57.6946 160.653 55.6659C159.142 53.6372 159.503 50.8217 161.461 49.3713C163.418 47.9208 166.231 48.3854 167.732 50.4141C169.243 52.4428 168.872 55.2583 166.924 56.7087Z"
            fill="white"
          />
          <path
            d="M197.216 78.1523C192.683 78.8254 187.628 78.4651 182.051 77.0621C181.224 76.8535 180.455 77.1664 179.761 77.9817C179.657 78.0954 179.666 78.1997 179.799 78.2945C180.388 78.7306 180.939 79.0434 181.452 79.233C188.835 81.9917 197.235 81.2807 204.532 78.4936C205.007 78.5694 205.311 78.74 205.463 79.0055C205.558 79.1856 205.529 79.3278 205.368 79.4605C205.035 79.7165 204.893 79.944 204.921 80.1526C195.524 84.2858 182.621 84.9778 173.965 78.6642C173.528 78.3514 173.623 77.6783 174.127 77.4982C176.245 76.7208 178.744 76.2658 180.569 75.4979C182.26 74.7869 183.866 73.8958 185.386 72.853C185.51 72.7677 185.643 72.7203 185.785 72.7013C185.956 72.6824 186.099 72.6255 186.241 72.5307C187.486 71.6585 189.985 69.8194 193.747 66.9849C204.009 59.2588 212.941 58.2634 225.388 61.0126C225.521 61.041 225.549 61.2401 225.416 61.2875C219.943 63.6575 215.915 66.5015 210.043 70.8054C207.259 72.853 202.993 75.2988 197.235 78.1523M189.586 73.0521C189.187 74.1897 189.633 74.6068 190.916 74.294C194.774 73.3649 200.551 69.9048 202.46 65.8948C202.717 65.3544 202.517 64.7098 201.852 63.9608C198.479 65.4871 195.79 67.1461 193.785 68.9188C193.187 69.4497 191.79 70.8243 189.586 73.0521Z"
            fill="#C7502E"
          />
          <path
            d="M247.108 63.5628C245.816 63.3827 244.581 63.231 243.384 63.0983C236.296 62.2925 227.602 65.2124 221.473 68.6725C217.178 71.0899 210.584 75.8773 204.522 78.5032C197.234 81.2903 188.835 82.0013 181.443 79.2426C180.93 79.053 180.379 78.7402 179.789 78.3041C179.666 78.2093 179.656 78.1145 179.751 77.9913C180.445 77.1665 181.215 76.8632 182.041 77.0717C187.628 78.4748 192.683 78.835 197.206 78.1619C201.748 77.8112 205.976 76.3797 209.891 73.8675C217.52 68.9759 224.428 64.3307 233.502 62.3968C237.531 61.5341 243.26 61.0507 247.108 63.5628Z"
            fill="#D0BFBA"
          />
          <path
            d="M247.108 63.5627C249.151 64.6719 249.759 66.492 248.923 69.0326C247.023 74.7964 241.379 79.3468 235.44 80.6835C229.673 81.9822 221.777 80.1147 215.829 78.2566C215.658 78.2092 215.658 78.1428 215.801 78.0575C222.518 74.3319 228.286 71.6965 236.267 70.739C238.624 70.4546 240.723 70.758 242.576 71.6491C244.638 72.6445 245.275 70.3029 244.115 69.2317C242.89 68.0941 241.398 67.4779 239.64 67.3831C228.2 66.7575 218.49 72.6255 209.064 78.1808C207.724 78.9676 206.308 79.5553 204.902 80.1621C204.864 79.9535 205.016 79.726 205.349 79.47C205.51 79.3468 205.539 79.1951 205.444 79.015C205.292 78.7496 204.988 78.5789 204.513 78.5031C210.575 75.8771 217.169 71.0898 221.464 68.6724C227.602 65.2217 236.296 62.2924 243.374 63.0982C244.572 63.2309 245.807 63.3921 247.099 63.5627H247.108Z"
            fill="#B03315"
          />
          <path
            d="M201.824 63.961C201.786 66.0087 200.94 67.5918 199.287 68.7199C196.417 70.6823 193.434 72.3223 190.327 73.659C190.175 73.7253 190.032 73.7158 189.899 73.6305C189.728 73.5262 189.614 73.3272 189.557 73.0428C191.762 70.8245 193.158 69.4499 193.757 68.9095C195.762 67.1273 198.451 65.4778 201.824 63.9515V63.961Z"
            fill="#D0BFBA"
          />
          <path
            d="M201.824 63.961C202.489 64.7099 202.689 65.3546 202.432 65.8949C200.522 69.9049 194.745 73.3651 190.888 74.2941C189.605 74.607 189.149 74.1898 189.557 73.0523C189.614 73.3367 189.728 73.5263 189.899 73.64C190.032 73.7253 190.185 73.7348 190.327 73.6685C193.425 72.3318 196.418 70.6823 199.287 68.7294C200.94 67.6013 201.786 66.0182 201.824 63.9705V63.961Z"
            fill="#CD6915"
          />
          <path
            d="M63.4611 86.5705C62.7295 86.7601 61.7698 86.798 60.5916 86.6748C55.6128 86.1439 49.6648 88.3622 46.6622 92.3059C43.6882 86.9971 36.7045 83.0819 31.4596 80.1336C30.3289 79.4985 29.5783 78.8444 29.2173 78.1713C27.963 75.8677 28.5426 72.2274 31.5166 71.687C34.9087 71.0803 40.6002 74.0854 43.6122 75.8487C50.0923 79.6502 56.7055 83.2241 63.4516 86.561L63.4611 86.5705Z"
            fill="#CD6915"
          />
          <path
            d="M37.8736 87.4616C34.8426 86.8265 31.9541 86.5326 29.2271 86.5705C19.621 86.7317 18.3478 96.8847 21.4168 103.748C21.5023 103.938 21.4453 104.004 21.2363 103.947C17.2266 102.791 13.3594 102.667 10.1764 105.767C8.86515 103.132 7.88649 100.392 7.22137 97.5672C6.60377 94.9602 5.47307 91.6043 5.18802 88.4949C5.16902 88.3338 5.12151 88.1916 5.0265 88.0494L4.29487 86.9971C4.22836 86.8928 4.16185 86.8928 4.10484 87.0161C4.00982 87.2246 3.8768 87.3384 3.70577 87.3763C3.38272 81.9064 4.4659 74.7111 11.6871 75.6117C12.9699 75.7729 14.8512 76.3417 17.3216 77.3181C24.3528 80.0862 31.194 83.4706 37.8736 87.4521V87.4616Z"
            fill="#CD6915"
          />
          <path
            d="M225.835 94.2208C225.445 94.4198 224.808 94.9223 223.934 95.7281C217.644 101.52 206.318 100.288 199.068 97.0932C193.767 94.2871 189.719 90.6373 184.968 87.5279C184.407 87.5279 184.151 87.1961 184.198 86.5325C193.444 89.0921 204.009 85.0063 212 80.5128C212.152 80.4275 212.323 80.4085 212.485 80.4559C217.492 82.0011 222.566 83.3094 227.697 84.3711C227.906 84.409 228.02 84.5418 228.02 84.7598C228.02 88.1631 227.298 91.3104 225.844 94.2208H225.835Z"
            fill="#B03315"
          />
          <path
            d="M172.055 80.3044C176.901 91.8225 186.023 101.141 197.729 105.331C196.874 105.891 196.617 106.943 196.969 108.488C198.536 115.39 203.097 118.556 207.848 123.135C214.689 129.733 219.696 137.506 222.86 146.455C226.652 157.149 225.597 166.828 219.725 175.473C210.195 189.494 190.783 196.149 174.773 199.192C157.062 202.557 138.866 202.842 121.051 201.353C105.686 200.074 91.624 198.017 78.8633 195.21C56.1259 190.205 33.0655 180.972 19.1931 161.595C18.509 160.637 18.2239 159.367 17.3973 158.372C17.2928 158.248 17.1882 158.248 17.0742 158.362C17.0172 158.428 16.9792 158.495 16.9792 158.561C15.1359 154.295 13.8437 149.849 13.1025 145.223C23.3263 161.367 45.1705 171.634 62.9196 176.459C96.8309 185.683 133.935 187.797 168.654 182.299C181.053 180.337 193.348 177 204.731 171.662C205.045 171.511 205.282 171.255 205.406 170.942C212.542 152.778 204.855 133.193 187.885 123.656C187.543 123.466 187.182 123.315 186.821 123.211C186.659 123.163 186.488 123.192 186.355 123.277C168.264 134.482 141.489 127.742 124.69 117.219C124.5 117.105 124.376 116.831 124.319 116.413C129.83 114.773 136.377 110.621 136.367 104.251C136.367 104.08 136.453 103.985 136.605 103.938C136.909 103.853 137.146 103.71 137.317 103.492C141.108 105.483 145.08 106.867 149.232 107.654C149.337 107.673 149.441 107.616 149.479 107.521C149.517 107.417 149.47 107.313 149.375 107.265L141.954 103.303C142.99 103.502 143.816 104.061 144.805 104.251C159.684 107.038 174.117 105.635 188.721 102.051C189.168 101.947 189.206 101.331 188.778 101.17L187.21 100.563C187.058 100.506 186.897 100.497 186.735 100.535C170.345 104.469 152.605 107.019 138.277 95.5481C137.403 94.8466 136.719 94.164 136.225 93.5099C136.044 93.2729 136.111 93.1781 136.396 93.235C137.393 93.4056 138.534 94.5906 139.503 95.0172C140.918 95.6429 141.65 95.9652 141.679 95.9842C152.928 101.653 169.993 100.563 171.514 84.5988C171.647 83.2242 171.837 81.7927 172.074 80.3044H172.055Z"
            fill="#E1A61A"
          />
          <path
            d="M184.189 86.5326C184.141 87.1962 184.398 87.528 184.958 87.528C184.54 87.6891 184.388 87.8408 184.483 88.002C185.738 89.9548 187.296 91.6043 189.177 92.96C192.256 95.1877 195.553 96.5623 199.059 97.0932C206.309 100.288 217.635 101.52 223.925 95.7281C224.808 94.9223 225.435 94.4199 225.825 94.2208C218.509 109.332 196.265 103.587 186.555 95.4248C183.638 92.9789 180.797 89.9074 178.041 86.2292C177.509 85.5088 177.519 84.9305 176.92 84.191C176.607 83.8024 176.673 83.7171 177.12 83.9446C179.4 85.0727 181.756 85.9353 184.179 86.5326H184.189Z"
            fill="#C7502E"
          />
          <path
            d="M37.8735 87.4617C41.7217 89.2249 45.3988 91.9836 47.0996 96.06C47.1471 96.1737 47.2706 96.2306 47.3847 96.1927C47.4987 96.1548 47.5652 96.0315 47.5367 95.9178L46.6625 92.3059C49.6651 88.3623 55.6036 86.144 60.5919 86.6748C61.7701 86.7981 62.7298 86.7696 63.4614 86.5706C63.8795 86.6369 64.2215 86.7602 64.4591 86.9213C64.5826 87.0066 64.5731 87.1868 64.4401 87.2626C60.7155 89.2723 56.9623 92.3438 55.4325 96.4012C55.347 96.6193 55.6321 96.7804 55.7841 96.6098L56.9243 95.3016C58.5301 94.6 60.0693 93.927 61.5421 93.2823C66.939 90.9313 73.0201 89.6989 78.778 89.2629C91.9663 88.2769 105.079 89.4998 118.134 92.9316C110.941 99.0556 114.789 108.848 120.965 114.053L114.675 117.447C114.542 117.522 114.533 117.608 114.656 117.703C114.723 117.759 114.789 117.759 114.865 117.722C114.913 117.693 114.941 117.684 114.96 117.674C115.663 117.428 116.119 117.352 116.309 117.437C118.751 118.139 121.412 117.807 124.3 116.404C124.357 116.821 124.481 117.096 124.671 117.21C141.47 127.732 168.245 134.482 186.336 123.267C186.469 123.182 186.65 123.154 186.802 123.201C187.173 123.305 187.524 123.457 187.866 123.647C204.836 133.183 212.523 152.769 205.387 170.932C205.264 171.245 205.017 171.501 204.713 171.653C193.33 176.99 181.035 180.327 168.635 182.289C133.925 187.788 96.8121 185.674 62.9008 176.45C45.1518 171.624 23.3075 161.348 13.0838 145.213C12.0386 137.762 12.3522 131.382 12.7322 124.386C12.7322 124.244 12.9223 124.196 12.9983 124.31C16.0103 128.728 19.2884 132.131 22.842 134.52C26.4811 136.966 26.6711 136.719 23.4311 133.771C17.7301 128.595 11.3355 119.058 8.78906 110.991C9.17863 110.877 9.34016 110.659 9.26414 110.346C8.85557 108.583 9.15963 107.066 10.1668 105.767C13.3403 102.658 17.217 102.791 21.2267 103.947C21.4357 104.004 21.4927 103.938 21.4072 103.748C18.3382 96.8847 19.6114 86.7317 29.2176 86.5706C31.9445 86.5232 34.833 86.817 37.864 87.4617M100.822 98.0223C93.173 94.5716 81.182 95.8893 75.9086 103.151C75.747 103.378 75.9371 103.682 76.2126 103.625C84.2605 102.118 91.8143 101.539 100.1 101.056C102.323 100.923 102.694 98.866 100.831 98.0318M37.0659 137.828C36.7428 138.397 36.7714 139.023 37.1704 139.724C48.3348 159.348 76.3266 168.487 97.3632 164.126C104.404 162.666 112.414 159.338 117.393 153.982C117.507 153.859 117.478 153.669 117.336 153.594L116.547 153.167C116.519 152.921 116.414 152.826 116.224 152.902C93.5056 161.614 60.8485 158.021 43.0139 140.255C42.3773 139.62 41.8927 139.099 41.5602 138.682C41.1611 136.425 41.2941 134.795 41.9497 133.809C47.9073 128.756 61.6466 132.254 68.4308 134.605C68.6493 134.681 68.7063 134.605 68.6113 134.406C66.1314 129.088 70.8062 125.296 75.6045 124.367C75.9371 125.031 77.1058 124.832 77.8184 125.211C87.6906 130.444 97.4202 135.914 107.007 141.639C108.537 142.549 109.212 143.725 110.77 141.725C110.884 141.573 110.875 141.431 110.723 141.317C102.19 134.236 93.8476 129.543 83.5384 124.813C83.4053 124.756 83.3103 124.632 83.2818 124.49L83.1298 123.722C84.194 123.637 85.2486 123.722 86.3033 123.978C94.8643 125.988 103.273 130.254 110.761 134.814C113.307 136.369 115.701 138.103 117.944 140.028C117.982 140.066 118.048 140.056 118.077 140.028C118.115 139.99 118.124 139.933 118.086 139.895C115.72 136.985 113.069 134.387 110.143 132.084L108.946 131.164C101.249 125.704 93.6006 122.187 84.3745 119.087C73.1436 115.304 62.0552 111.143 51.1093 106.602C46.0544 104.497 41.0471 103.691 36.1062 104.184C30.0917 104.781 27.1557 110.318 27.9348 115.977C29.037 123.959 32.0775 131.249 37.0659 137.857M97.8383 155.395C82.7402 155.518 68.8108 153.347 55.423 146.161C55.1475 146.01 54.9005 145.896 54.6914 145.82C54.5964 145.782 54.4824 145.82 54.4349 145.924C54.3874 146.019 54.4254 146.123 54.5109 146.18C64.4686 152.295 76.0891 155.148 87.7001 155.916C89.8379 156.058 94.0187 156.001 100.233 155.746C100.28 155.746 100.318 155.727 100.337 155.689L100.423 155.556C100.499 155.423 100.461 155.347 100.309 155.328C99.4536 155.224 98.5414 155.395 97.8288 155.404L97.8383 155.395Z"
            fill="#F3D532"
          />
          <path
            d="M126.685 95.7471C126.22 95.6807 125.735 95.5101 125.251 95.2446C123.179 94.107 120.395 93.5288 118.134 92.9315C105.079 89.4998 91.9663 88.2769 78.7781 89.2628C73.0201 89.6894 66.939 90.9313 61.5421 93.2823C60.0694 93.9269 58.5301 94.6 56.9243 95.3015C63.3569 89.0732 74.7209 87.054 83.1013 86.6463C97.0212 85.9638 110.532 87.9072 123.654 92.4954C124.5 92.7988 125.517 93.8795 126.685 95.7471Z"
            fill="#F8EFA0"
          />
          <path
            d="M10.1762 105.777C9.169 107.066 8.85545 108.592 9.27352 110.356C9.34953 110.678 9.188 110.896 8.79844 111C5.6724 103.483 3.98111 95.605 3.70557 87.3859C3.8766 87.348 4.00962 87.2342 4.10463 87.0257C4.16164 86.9119 4.22816 86.9024 4.29467 87.0067L5.02629 88.059C5.12131 88.1917 5.17832 88.3434 5.18782 88.5045C5.48237 91.6139 6.60356 94.9698 7.22117 97.5768C7.88628 100.411 8.87445 103.142 10.1762 105.777Z"
            fill="#C7502E"
          />
          <path
            d="M184.959 87.528C189.719 90.6469 193.767 94.2871 199.059 97.0932C195.553 96.5623 192.256 95.1877 189.177 92.96C187.305 91.6043 185.738 89.9548 184.484 88.002C184.379 87.8408 184.541 87.6891 184.959 87.528Z"
            fill="#CD6915"
          />
          <path
            d="M118.134 92.9315C120.395 93.5287 123.179 94.107 125.25 95.2446C125.745 95.51 126.22 95.6807 126.685 95.747C128.148 97.1311 129.659 98.6005 131.227 100.165C133.27 102.193 131.265 105.853 129.83 107.521C127.911 109.739 123.958 112.422 120.956 114.062C114.78 108.848 110.932 99.065 118.124 92.941L118.134 92.9315Z"
            fill="#E1A61A"
          />
          <path
            d="M100.831 98.0127C102.693 98.8564 102.332 100.914 100.099 101.037C91.8139 101.52 84.2601 102.099 76.2122 103.606C75.9462 103.653 75.7466 103.35 75.9081 103.132C81.1816 95.8797 93.1726 94.5525 100.821 98.0032L100.831 98.0127Z"
            fill="#F8EFA0"
          />
          <path
            d="M137.308 103.502C137.127 103.71 136.89 103.862 136.595 103.947C136.434 103.985 136.358 104.089 136.358 104.26C136.367 110.631 129.821 114.783 124.31 116.423C121.421 117.816 118.761 118.158 116.319 117.456C123.379 115.446 134.895 111.522 135.522 102.857C135.541 102.658 135.636 102.601 135.816 102.696L137.317 103.511L137.308 103.502Z"
            fill="#ECC52E"
          />
          <path
            d="M108.945 131.126L108.898 131.43C101.487 126.68 93.7143 123.03 85.5524 120.49C76.4688 117.665 68.6965 115.2 62.2544 113.095C57.8837 111.673 52.4202 109.294 47.3464 107.796C42.187 106.118 37.4647 106.071 33.1604 107.663L31.7067 109.266C27.2409 117.731 35.6404 132.34 41.5504 138.663C41.8829 139.08 42.3675 139.601 43.0041 140.236C60.8387 158.002 93.4958 161.585 116.214 152.883C116.404 152.807 116.518 152.902 116.537 153.148C111.72 157.85 99.9474 159.623 93.1727 159.784C72.4592 160.249 50.2253 154.399 37.0656 137.81C32.0772 131.212 29.0272 123.922 27.9345 115.93C27.1554 110.27 30.1009 104.734 36.1059 104.137C41.0468 103.653 46.0446 104.459 51.109 106.554C62.0549 111.095 73.1433 115.257 84.3742 119.039C93.6003 122.149 101.249 125.656 108.945 131.117V131.126Z"
            fill="#002441"
          />
          <path
            d="M197.738 105.331L198.508 105.53C198.688 105.578 198.774 105.692 198.774 105.862C198.878 113.323 205.216 118.025 210.024 122.746C226.044 138.502 233.749 161.614 218.832 181C204.237 199.96 173.157 204.103 151.104 205.022C129.507 205.923 108.128 204.292 86.9682 200.13C60.5062 194.926 28.9513 185.749 16.9697 158.552C16.9697 158.485 17.0077 158.419 17.0647 158.352C17.1788 158.239 17.2833 158.239 17.3878 158.362C18.2239 159.357 18.509 160.637 19.1836 161.585C33.056 180.962 56.1164 190.196 78.8538 195.201C91.6145 198.007 105.677 200.064 121.041 201.344C138.866 202.832 157.052 202.548 174.763 199.182C190.783 196.139 210.185 189.475 219.715 175.464C225.597 166.818 226.642 157.139 222.851 146.446C219.687 137.506 214.68 129.733 207.838 123.125C203.088 118.546 198.536 115.38 196.959 108.479C196.607 106.933 196.864 105.891 197.719 105.322L197.738 105.331Z"
            fill="#F3D532"
          />
          <path
            d="M47.3464 107.806C47.1468 108.109 47.1088 108.431 47.2228 108.801C47.2703 108.962 47.3749 109.076 47.5174 109.142C49.2942 110.014 51.071 110.906 52.9618 111.522C54.3966 111.986 56.2304 113.048 57.0475 113.399C63.1761 116.034 69.0956 118.821 74.8631 122.215C74.9961 122.3 75.0531 122.414 75.0151 122.575L74.8726 123.135C74.8441 123.267 74.692 123.324 74.5685 123.258C73.9794 122.926 73.3523 122.869 72.8107 122.575C62.3209 116.878 51.7836 111.863 41.1893 107.54C39.4885 106.848 38.3863 106.81 36.4575 107.37C35.3078 107.701 34.2056 107.806 33.1699 107.663C37.4647 106.071 42.1965 106.118 47.3559 107.796L47.3464 107.806Z"
            fill="#C7502E"
          />
          <path
            d="M47.3466 107.806C52.4205 109.294 57.8839 111.673 62.2546 113.105C68.7062 115.209 76.4691 117.674 85.5526 120.499C93.7145 123.04 101.496 126.69 108.898 131.439C109.402 131.913 109.82 132.122 110.143 132.055C113.069 134.349 115.72 136.956 118.086 139.867C118.124 139.905 118.115 139.971 118.077 139.999C118.039 140.037 117.982 140.037 117.944 139.999C115.701 138.075 113.307 136.34 110.76 134.786C103.283 130.226 94.8737 125.969 86.3033 123.95C85.2486 123.704 84.1939 123.618 83.1297 123.694C80.6023 123.533 78.0939 123.751 75.5949 124.348C70.7966 125.277 66.1218 129.069 68.6017 134.387C68.6967 134.596 68.6397 134.662 68.4212 134.586C61.6465 132.235 47.9072 128.737 41.9402 133.79C41.4841 132.719 40.3819 131.809 39.8118 131.031C35.4411 125.135 31.0798 116.821 31.7069 109.266L33.1607 107.663C34.2058 107.796 35.2985 107.701 36.4482 107.37C38.3771 106.81 39.4792 106.839 41.18 107.54C51.7743 111.863 62.3117 116.878 72.8014 122.575C73.343 122.869 73.9701 122.917 74.5592 123.258C74.6733 123.324 74.8253 123.258 74.8633 123.135L75.0058 122.575C75.0438 122.414 74.9868 122.3 74.8538 122.215C69.0958 118.831 63.1763 116.044 57.0382 113.399C56.2211 113.048 54.3873 111.986 52.9525 111.522C51.0617 110.906 49.2849 110.014 47.5081 109.142C47.3561 109.067 47.2611 108.953 47.2136 108.801C47.0995 108.431 47.1376 108.109 47.3371 107.806H47.3466Z"
            fill="#CD6915"
          />
          <path
            d="M31.7163 109.275C31.0892 116.821 35.4505 125.144 39.8212 131.041C40.3913 131.809 41.503 132.728 41.9496 133.799C41.2845 134.785 41.1609 136.416 41.56 138.672C35.65 132.349 27.2506 117.75 31.7163 109.275Z"
            fill="#C7502E"
          />
          <path
            d="M83.1298 123.694L83.2818 124.462C83.3103 124.604 83.4053 124.727 83.5383 124.784C93.8476 129.515 102.19 134.207 110.722 141.289C110.875 141.412 110.884 141.545 110.77 141.696C109.212 143.697 108.537 142.521 107.007 141.611C97.4202 135.885 87.6811 130.415 77.8184 125.182C77.1058 124.803 75.937 124.993 75.6045 124.339C78.0939 123.741 80.6118 123.533 83.1393 123.684L83.1298 123.694Z"
            fill="#F5E73A"
          />
          <path
            d="M108.945 131.126L110.143 132.046C109.82 132.112 109.402 131.913 108.898 131.429L108.945 131.126Z"
            fill="#B03315"
          />
          <path
            d="M37.0655 137.809C50.2253 154.39 72.4686 160.248 93.1726 159.784C99.9473 159.623 111.72 157.85 116.537 153.148L117.326 153.575C117.468 153.65 117.497 153.84 117.383 153.963C112.404 159.319 104.385 162.647 97.3533 164.107C76.3167 168.468 48.325 159.329 37.1605 139.705C36.771 139.013 36.733 138.378 37.056 137.809H37.0655Z"
            fill="#E1A61A"
          />
          <path
            d="M110.28 73.7445L104.941 74.8061L106.358 81.8998L111.697 80.8382L110.28 73.7445Z"
            fill="#002441"
          />
          <path
            d="M115.623 72.6859L110.283 73.7475L111.7 80.8412L117.039 79.7796L115.623 72.6859Z"
            fill="#002441"
          />
          <path
            d="M114.204 65.5905L108.865 66.6521L110.282 73.7458L115.621 72.6842L114.204 65.5905Z"
            fill="#002441"
          />
          <path
            d="M119.53 64.5449L114.2 65.6046L115.617 72.6983L120.947 71.6386L119.53 64.5449Z"
            fill="#002441"
          />
          <path
            d="M118.111 57.4495L112.781 58.5092L114.196 65.5936L119.526 64.5339L118.111 57.4495Z"
            fill="#002441"
          />
          <path
            d="M123.456 56.4001L118.116 57.4617L119.531 64.5461L124.871 63.4845L123.456 56.4001Z"
            fill="#002441"
          />
          <path
            d="M122.037 49.305L116.697 50.3666L118.114 57.4603L123.454 56.3987L122.037 49.305Z"
            fill="#002441"
          />
          <path
            d="M127.379 48.2461L122.04 49.3077L123.457 56.4014L128.796 55.3398L127.379 48.2461Z"
            fill="#002441"
          />
          <path
            d="M132.712 47.1799L127.382 48.2396L128.799 55.3333L134.129 54.2736L132.712 47.1799Z"
            fill="#002441"
          />
          <path
            d="M139.464 53.2166L134.125 54.2782L135.54 61.3626L140.879 60.301L139.464 53.2166Z"
            fill="#002441"
          />
          <path
            d="M138.045 46.1213L132.706 47.1829L134.123 54.2766L139.462 53.215L138.045 46.1213Z"
            fill="#002441"
          />
          <path
            d="M146.214 59.2362L140.875 60.2978L142.292 67.3915L147.631 66.3299L146.214 59.2362Z"
            fill="#002441"
          />
          <path
            d="M144.797 52.1504L139.458 53.212L140.873 60.2964L146.212 59.2348L144.797 52.1504Z"
            fill="#002441"
          />
          <path
            d="M143.379 45.0645L138.04 46.1261L139.456 53.2198L144.796 52.1582L143.379 45.0645Z"
            fill="#002441"
          />
          <path
            d="M152.966 65.2635L147.626 66.3251L149.043 73.4188L154.383 72.3572L152.966 65.2635Z"
            fill="#002441"
          />
          <path
            d="M151.547 58.1681L146.208 59.2297L147.625 66.3234L152.964 65.2618L151.547 58.1681Z"
            fill="#002441"
          />
          <path
            d="M150.13 51.0917L144.791 52.1533L146.206 59.2377L151.545 58.1761L150.13 51.0917Z"
            fill="#002441"
          />
          <path
            d="M148.721 43.9964L143.382 45.058L144.799 52.1517L150.138 51.0901L148.721 43.9964Z"
            fill="#002441"
          />
          <path
            d="M158.299 64.1972L152.969 65.257L154.386 72.3507L159.716 71.2909L158.299 64.1972Z"
            fill="#002441"
          />
          <path
            d="M156.881 57.1114L151.551 58.1711L152.968 65.2648L158.298 64.2051L156.881 57.1114Z"
            fill="#002441"
          />
          <path
            d="M155.464 50.0255L150.134 51.0852L151.549 58.1696L156.879 57.1099L155.464 50.0255Z"
            fill="#002441"
          />
          <path
            d="M154.045 42.9396L148.715 43.9993L150.132 51.0931L155.462 50.0333L154.045 42.9396Z"
            fill="#002441"
          />
          <path
            d="M163.634 63.1479L158.295 64.2094L159.712 71.3032L165.051 70.2416L163.634 63.1479Z"
            fill="#002441"
          />
          <path
            d="M162.225 56.0525L156.886 57.1141L158.303 64.2078L163.642 63.1462L162.225 56.0525Z"
            fill="#002441"
          />
          <path
            d="M160.806 48.9666L155.467 50.0282L156.882 57.1126L162.221 56.051L160.806 48.9666Z"
            fill="#002441"
          />
          <path
            d="M159.388 41.8715L154.048 42.9331L155.465 50.0268L160.805 48.9652L159.388 41.8715Z"
            fill="#002441"
          />
          <path
            d="M168.967 62.0816L163.628 63.1432L165.045 70.2369L170.384 69.1753L168.967 62.0816Z"
            fill="#002441"
          />
          <path
            d="M167.549 54.9957L162.209 56.0573L163.626 63.151L168.966 62.0894L167.549 54.9957Z"
            fill="white"
          />
          <path
            d="M166.141 47.9096L160.802 48.9712L162.217 56.0556L167.556 54.994L166.141 47.9096Z"
            fill="#002441"
          />
          <path
            d="M164.721 40.8145L159.381 41.8761L160.798 48.9698L166.138 47.9082L164.721 40.8145Z"
            fill="#002441"
          />
          <path
            d="M174.301 61.0248L168.971 62.0846L170.388 69.1783L175.718 68.1185L174.301 61.0248Z"
            fill="#002441"
          />
          <path
            d="M172.882 53.9295L167.552 54.9892L168.969 62.0829L174.299 61.0232L172.882 53.9295Z"
            fill="white"
          />
          <path
            d="M171.465 46.8529L166.135 47.9126L167.55 54.997L172.88 53.9373L171.465 46.8529Z"
            fill="white"
          />
          <path
            d="M170.046 39.7577L164.716 40.8175L166.133 47.9112L171.463 46.8514L170.046 39.7577Z"
            fill="#002441"
          />
          <path
            d="M179.634 59.9662L174.294 61.0278L175.711 68.1215L181.051 67.0599L179.634 59.9662Z"
            fill="#002441"
          />
          <path
            d="M178.224 52.8708L172.885 53.9324L174.302 61.0261L179.641 59.9645L178.224 52.8708Z"
            fill="#002441"
          />
          <path
            d="M176.808 45.7847L171.468 46.8463L172.883 53.9307L178.223 52.8691L176.808 45.7847Z"
            fill="white"
          />
          <path
            d="M175.389 38.6989L170.049 39.7605L171.466 46.8542L176.806 45.7926L175.389 38.6989Z"
            fill="#002441"
          />
          <path
            d="M183.548 51.8141L178.208 52.8757L179.625 59.9694L184.965 58.9078L183.548 51.8141Z"
            fill="#002441"
          />
          <path
            d="M182.141 44.728L176.801 45.7896L178.216 52.874L183.556 51.8124L182.141 44.728Z"
            fill="#002441"
          />
          <path
            d="M180.732 37.6403L175.392 38.7018L176.809 45.7955L182.148 44.734L180.732 37.6403Z"
            fill="#002441"
          />
          <path
            d="M187.464 43.6712L182.134 44.7309L183.549 51.8153L188.879 50.7556L187.464 43.6712Z"
            fill="#002441"
          />
          <path
            d="M186.055 36.5758L180.725 37.6356L182.142 44.7293L187.472 43.6695L186.055 36.5758Z"
            fill="#002441"
          />
          <path
            d="M191.388 35.5172L186.049 36.5788L187.466 43.6725L192.805 42.6109L191.388 35.5172Z"
            fill="#002441"
          />
          <path
            d="M198.15 41.5445L192.81 42.6061L194.225 49.6905L199.564 48.6289L198.15 41.5445Z"
            fill="#002441"
          />
          <path
            d="M196.731 34.4491L191.392 35.5107L192.808 42.6044L198.148 41.5428L196.731 34.4491Z"
            fill="#002441"
          />
          <path
            d="M204.89 47.5641L199.551 48.6257L200.968 55.7194L206.307 54.6578L204.89 47.5641Z"
            fill="#002441"
          />
          <path
            d="M203.473 40.4782L198.134 41.5398L199.549 48.6242L204.888 47.5626L203.473 40.4782Z"
            fill="#002441"
          />
          <path
            d="M202.064 33.3923L196.725 34.4539L198.141 41.5476L203.481 40.486L202.064 33.3923Z"
            fill="#002441"
          />
          <path
            d="M211.644 53.6024L206.314 54.6622L207.731 61.7559L213.061 60.6962L211.644 53.6024Z"
            fill="#002441"
          />
          <path
            d="M210.225 46.5071L204.895 47.5668L206.312 54.6605L211.642 53.6008L210.225 46.5071Z"
            fill="#002441"
          />
          <path
            d="M208.808 39.4307L203.478 40.4904L204.893 47.5748L210.223 46.5151L208.808 39.4307Z"
            fill="#002441"
          />
          <path
            d="M207.388 32.3261L202.058 33.3858L203.474 40.4795L208.805 39.4198L207.388 32.3261Z"
            fill="#002441"
          />
          <path
            d="M216.977 52.5438L211.638 53.6054L213.055 60.6991L218.394 59.6375L216.977 52.5438Z"
            fill="#002441"
          />
          <path
            d="M215.567 45.4485L210.228 46.51L211.645 53.6038L216.984 52.5422L215.567 45.4485Z"
            fill="#002441"
          />
          <path
            d="M214.151 38.3626L208.812 39.4242L210.227 46.5086L215.566 45.447L214.151 38.3626Z"
            fill="#002441"
          />
          <path
            d="M212.732 31.2767L207.393 32.3383L208.809 39.432L214.149 38.3704L212.732 31.2767Z"
            fill="#002441"
          />
          <path
            d="M222.319 51.4757L216.98 52.5373L218.397 59.631L223.736 58.5694L222.319 51.4757Z"
            fill="#002441"
          />
          <path
            d="M220.901 44.3898L215.562 45.4514L216.978 52.5451L222.318 51.4835L220.901 44.3898Z"
            fill="#002441"
          />
          <path
            d="M219.484 37.3037L214.145 38.3653L215.56 45.4497L220.899 44.3881L219.484 37.3037Z"
            fill="#002441"
          />
          <path
            d="M218.075 30.2181L212.735 31.2797L214.152 38.3734L219.492 37.3118L218.075 30.2181Z"
            fill="#002441"
          />
          <path
            d="M227.643 50.4208L222.313 51.4805L223.73 58.5742L229.06 57.5145L227.643 50.4208Z"
            fill="#002441"
          />
          <path
            d="M226.225 43.3254L220.895 44.3852L222.311 51.4789L227.641 50.4191L226.225 43.3254Z"
            fill="white"
          />
          <path
            d="M224.808 36.2488L219.478 37.3086L220.893 44.393L226.223 43.3332L224.808 36.2488Z"
            fill="#002441"
          />
          <path
            d="M223.389 29.1535L218.059 30.2132L219.476 37.3069L224.806 36.2472L223.389 29.1535Z"
            fill="#002441"
          />
          <path
            d="M232.976 49.3527L227.637 50.4143L229.054 57.508L234.393 56.4464L232.976 49.3527Z"
            fill="#002441"
          />
          <path
            d="M231.567 42.2668L226.228 43.3284L227.644 50.4221L232.984 49.3605L231.567 42.2668Z"
            fill="white"
          />
          <path
            d="M230.15 35.1807L224.811 36.2423L226.226 43.3267L231.565 42.2651L230.15 35.1807Z"
            fill="white"
          />
          <path
            d="M228.732 28.0948L223.392 29.1564L224.809 36.2501L230.148 35.1885L228.732 28.0948Z"
            fill="#002441"
          />
          <path
            d="M238.319 48.2938L232.979 49.3554L234.396 56.4491L239.736 55.3875L238.319 48.2938Z"
            fill="#002441"
          />
          <path
            d="M236.9 41.1987L231.561 42.2603L232.977 49.354L238.317 48.2924L236.9 41.1987Z"
            fill="#002441"
          />
          <path
            d="M235.493 34.1221L230.153 35.1837L231.568 42.2681L236.908 41.2065L235.493 34.1221Z"
            fill="white"
          />
          <path
            d="M234.074 27.0267L228.735 28.0883L230.152 35.182L235.491 34.1204L234.074 27.0267Z"
            fill="#002441"
          />
          <path
            d="M242.233 40.1419L236.903 41.2017L238.32 48.2954L243.65 47.2356L242.233 40.1419Z"
            fill="#002441"
          />
          <path
            d="M240.816 33.0558L235.486 34.1156L236.901 41.2L242.231 40.1402L240.816 33.0558Z"
            fill="#002441"
          />
          <path
            d="M239.398 25.97L234.068 27.0297L235.485 34.1234L240.815 33.0637L239.398 25.97Z"
            fill="#002441"
          />
          <path
            d="M246.15 31.9991L240.811 33.0606L242.226 40.145L247.565 39.0835L246.15 31.9991Z"
            fill="#002441"
          />
          <path
            d="M244.731 24.9037L239.392 25.9653L240.808 33.059L246.148 31.9974L244.731 24.9037Z"
            fill="#002441"
          />
          <path
            d="M250.073 23.8451L244.734 24.9067L246.151 32.0004L251.49 30.9388L250.073 23.8451Z"
            fill="#002441"
          />
        </g>
        <defs>
          <clipPath id="clip0_20_1440">
            <rect width="257" height="216" fill="white" />
          </clipPath>
        </defs>
      </svg>